<svg width="200px" height="96px" viewBox="0 0 200 96" version="1.1" xmlns="http://www.w3.org/2000/svg" xmlns:xlink="http://www.w3.org/1999/xlink">
	<title>chart-previews</title>
	<g class="scatter1 stable" transform="translate(15, 17)">
		<circle cx="30" cy="42.2916667" r="3"></circle>
		<circle cx="50" cy="44" r="3"></circle>
		<circle cx="54" cy="34.6041667" r="3"></circle>
		<circle cx="70" cy="31.1875" r="3"></circle>
		<circle cx="6" cy="33.75" r="3"></circle>
		<circle cx="125" cy="29.4791667" r="3"></circle>
		<circle cx="144" cy="26.9166667" r="3"></circle>
		<circle cx="139" cy="36.3125" r="3"></circle>
		<circle cx="98" cy="38.0208333" r="3"></circle>
		<circle cx="138" cy="27.7708333" r="3"></circle>
		<circle cx="109" cy="37.1666667" r="3"></circle>
		<circle cx="84" cy="41.4375" r="3"></circle>
		<circle cx="88" cy="44" r="3"></circle>
		<circle cx="133" cy="15.8125" r="3"></circle>
		<circle cx="148" cy="22.6458333" r="3"></circle>
		<circle cx="63" cy="28.625" r="3"></circle>
		<circle cx="135" cy="35.4583333" r="3"></circle>
		<circle cx="134" cy="23.5" r="3"></circle>
		<circle cx="15" cy="38.0208333" r="3"></circle>
		<circle cx="63" cy="30.3333333" r="3"></circle>
		<circle cx="100" cy="32.8958333" r="3"></circle>
		<circle cx="43" cy="36.3125" r="3"></circle>
		<circle cx="40" cy="33.75" r="3"></circle>
		<circle cx="145" cy="42.2916667" r="3"></circle>
		<circle cx="51" cy="45.7083333" r="3"></circle>
		<circle cx="86" cy="32.0416667" r="3"></circle>
		<circle cx="46" cy="38.0208333" r="3"></circle>
		<circle cx="21" cy="19.2291667" r="3"></circle>
		<circle cx="3" cy="36.3125" r="3"></circle>
		<circle cx="115" cy="38.875" r="3"></circle>
		<circle cx="131" cy="30.3333333" r="3"></circle>
		<circle cx="72" cy="31.1875" r="3"></circle>
		<circle cx="46" cy="40.5833333" r="3"></circle>
		<circle cx="124" cy="38.0208333" r="3"></circle>
		<circle cx="51" cy="50.8333333" r="3"></circle>
		<circle cx="76" cy="23.5" r="3"></circle>
		<circle cx="94" cy="34.6041667" r="3"></circle>
		<circle cx="94" cy="36.3125" r="3"></circle>
		<circle cx="69" cy="22.6458333" r="3"></circle>
		<circle cx="106" cy="39.7291667" r="3"></circle>
		<circle cx="80" cy="30.3333333" r="3"></circle>
		<circle cx="45" cy="44.8541667" r="3"></circle>
		<circle cx="143" cy="26.0625" r="3"></circle>
		<circle cx="127" cy="28.625" r="3"></circle>
		<circle cx="89" cy="30.3333333" r="3"></circle>
		<circle cx="76" cy="36.3125" r="3"></circle>
		<circle cx="28" cy="32.8958333" r="3"></circle>
		<circle cx="69" cy="30.3333333" r="3"></circle>
		<circle cx="113" cy="30.3333333" r="3"></circle>
		<circle cx="50" cy="33.75" r="3"></circle>
		<circle cx="137" cy="35.4583333" r="3"></circle>
		<circle cx="101" cy="38.875" r="3"></circle>
		<circle cx="87" cy="28.625" r="3"></circle>
		<circle cx="96" cy="44.8541667" r="3"></circle>
		<circle cx="77" cy="32.8958333" r="3"></circle>
		<circle cx="69" cy="22.6458333" r="3"></circle>
		<circle cx="141" cy="32.8958333" r="3"></circle>
		<circle cx="104" cy="37.1666667" r="3"></circle>
		<circle cx="53" cy="42.2916667" r="3"></circle>
		<circle cx="155" cy="44" r="3"></circle>
		<circle cx="138" cy="39.7291667" r="3"></circle>
		<circle cx="32" cy="48.2708333" r="3"></circle>
		<circle cx="63" cy="54.25" r="3"></circle>
		<circle cx="48" cy="45.7083333" r="3"></circle>
		<circle cx="102" cy="25.2083333" r="3"></circle>
		<circle cx="129" cy="29.4791667" r="3"></circle>
		<circle cx="37" cy="46.5625" r="3"></circle>
		<circle cx="59" cy="38.0208333" r="3"></circle>
		<circle cx="105" cy="34.6041667" r="3"></circle>
		<circle cx="123" cy="31.1875" r="3"></circle>
		<circle cx="99" cy="22.6458333" r="3"></circle>
		<circle cx="42" cy="26.0625" r="3"></circle>
		<circle cx="105" cy="48.2708333" r="3"></circle>
		<circle cx="58" cy="46.5625" r="3"></circle>
		<circle cx="21" cy="35.4583333" r="3"></circle>
		<circle cx="100" cy="37.1666667" r="3"></circle>
		<circle cx="66" cy="18.375" r="3"></circle>
		<circle cx="165" cy="34.6041667" r="3"></circle>
		<circle cx="58" cy="38.875" r="3"></circle>
		<circle cx="65" cy="47.4166667" r="3"></circle>
		<circle cx="95" cy="24.3541667" r="3"></circle>
		<circle cx="139" cy="24.3541667" r="3"></circle>
		<circle cx="130" cy="45.7083333" r="3"></circle>
		<circle cx="98" cy="45.7083333" r="3"></circle>
		<circle cx="81" cy="3" r="3"></circle>
		<circle cx="73" cy="23.5" r="3"></circle>
	</g>
	<g class="scatter1 increase" transform="translate(21, 7)">
		<circle cx="34" cy="61.0833333" r="3"></circle>
		<circle cx="45" cy="75.6041667" r="3"></circle>
		<circle cx="52" cy="55.1041667" r="3"></circle>
		<circle cx="61" cy="39.7291667" r="3"></circle>
		<circle cx="13" cy="74.75" r="3"></circle>
		<circle cx="105" cy="12.3958333" r="3"></circle>
		<circle cx="124" cy="17.5208333" r="3"></circle>
		<circle cx="120" cy="32.0416667" r="3"></circle>
		<circle cx="102" cy="40.5833333" r="3"></circle>
		<circle cx="110" cy="16.6666667" r="3"></circle>
		<circle cx="91" cy="20.9375" r="3"></circle>
		<circle cx="66" cy="45.7083333" r="3"></circle>
		<circle cx="95" cy="27.7708333" r="3"></circle>
		<circle cx="110" cy="3" r="3"></circle>
		<circle cx="117" cy="3.85416667" r="3"></circle>
		<circle cx="55" cy="55.1041667" r="3"></circle>
		<circle cx="105" cy="20.0833333" r="3"></circle>
		<circle cx="107" cy="14.1041667" r="3"></circle>
		<circle cx="22" cy="63.6458333" r="3"></circle>
		<circle cx="49" cy="44" r="3"></circle>
		<circle cx="108" cy="27.7708333" r="3"></circle>
		<circle cx="55" cy="55.1041667" r="3"></circle>
		<circle cx="37" cy="62.7916667" r="3"></circle>
		<circle cx="121" cy="20.9375" r="3"></circle>
		<circle cx="44" cy="75.6041667" r="3"></circle>
		<circle cx="80" cy="36.3125" r="3"></circle>
		<circle cx="46" cy="55.1041667" r="3"></circle>
		<circle cx="21" cy="49.125" r="3"></circle>
		<circle cx="3" cy="64.5" r="3"></circle>
		<circle cx="123" cy="28.625" r="3"></circle>
		<circle cx="117" cy="8.125" r="3"></circle>
		<circle cx="90" cy="34.6041667" r="3"></circle>
		<circle cx="54" cy="61.9375" r="3"></circle>
		<circle cx="91" cy="20.9375" r="3"></circle>
		<circle cx="46" cy="56.8125" r="3"></circle>
		<circle cx="69" cy="32.0416667" r="3"></circle>
		<circle cx="112" cy="35.4583333" r="3"></circle>
		<circle cx="105" cy="44" r="3"></circle>
		<circle cx="61" cy="34.6041667" r="3"></circle>
		<circle cx="113" cy="37.1666667" r="3"></circle>
		<circle cx="73" cy="32.0416667" r="3"></circle>
		<circle cx="48" cy="69.625" r="3"></circle>
		<circle cx="112" cy="9.83333333" r="3"></circle>
		<circle cx="123" cy="21.7916667" r="3"></circle>
		<circle cx="105" cy="35.4583333" r="3"></circle>
		<circle cx="77" cy="50.8333333" r="3"></circle>
		<circle cx="32" cy="53.3958333" r="3"></circle>
		<circle cx="57" cy="44" r="3"></circle>
		<circle cx="91" cy="13.25" r="3"></circle>
		<circle cx="44" cy="51.6875" r="3"></circle>
		<circle cx="113" cy="19.2291667" r="3"></circle>
		<circle cx="110" cy="43.1458333" r="3"></circle>
		<circle cx="68" cy="31.1875" r="3"></circle>
		<circle cx="106" cy="29.4791667" r="3"></circle>
		<circle cx="87" cy="32.8958333" r="3"></circle>
		<circle cx="57" cy="38.875" r="3"></circle>
		<circle cx="108" cy="20.9375" r="3"></circle>
		<circle cx="110" cy="30.3333333" r="3"></circle>
		<circle cx="52" cy="64.5" r="3"></circle>
		<circle cx="127" cy="20.9375" r="3"></circle>
		<circle cx="107" cy="18.375" r="3"></circle>
		<circle cx="31" cy="64.5" r="3"></circle>
		<circle cx="52" cy="58.5208333" r="3"></circle>
		<circle cx="49" cy="70.4791667" r="3"></circle>
		<circle cx="98" cy="25.2083333" r="3"></circle>
		<circle cx="128" cy="25.2083333" r="3"></circle>
		<circle cx="28" cy="69.625" r="3"></circle>
		<circle cx="49" cy="46.5625" r="3"></circle>
		<circle cx="106" cy="30.3333333" r="3"></circle>
		<circle cx="101" cy="11.5416667" r="3"></circle>
		<circle cx="110" cy="33.75" r="3"></circle>
		<circle cx="32" cy="47.4166667" r="3"></circle>
		<circle cx="106" cy="52.5416667" r="3"></circle>
		<circle cx="53" cy="61.9375" r="3"></circle>
		<circle cx="23" cy="61.9375" r="3"></circle>
		<circle cx="108" cy="22.6458333" r="3"></circle>
		<circle cx="51" cy="36.3125" r="3"></circle>
		<circle cx="153" cy="7.27083333" r="3"></circle>
		<circle cx="63" cy="57.6666667" r="3"></circle>
		<circle cx="79" cy="56.8125" r="3"></circle>
		<circle cx="73" cy="33.75" r="3"></circle>
		<circle cx="113" cy="9.83333333" r="3"></circle>
		<circle cx="102" cy="20.9375" r="3"></circle>
		<circle cx="108" cy="40.5833333" r="3"></circle>
		<circle cx="71" cy="18.375" r="3"></circle>
		<circle cx="65" cy="28.625" r="3"></circle>
	</g>
	<g class="scatter1 decrease" transform="translate(16, 7)">
		<circle cx="115" cy="74" r="3"></circle>
		<circle cx="116" cy="56" r="3"></circle>
		<circle cx="95" cy="56" r="3"></circle>
		<circle cx="65" cy="45" r="3"></circle>
		<circle cx="161" cy="70" r="3"></circle>
		<circle cx="21" cy="40" r="3"></circle>
		<circle cx="22" cy="41" r="3"></circle>
		<circle cx="15" cy="34" r="3"></circle>
		<circle cx="50" cy="44" r="3"></circle>
		<circle cx="105" cy="36" r="3"></circle>
		<circle cx="47" cy="32" r="3"></circle>
		<circle cx="90" cy="54" r="3"></circle>
		<circle cx="39" cy="33" r="3"></circle>
		<circle cx="46" cy="18" r="3"></circle>
		<circle cx="24" cy="23" r="3"></circle>
		<circle cx="115" cy="57" r="3"></circle>
		<circle cx="20" cy="20" r="3"></circle>
		<circle cx="30" cy="23" r="3"></circle>
		<circle cx="121" cy="64" r="3"></circle>
		<circle cx="99" cy="55" r="3"></circle>
		<circle cx="41" cy="33" r="3"></circle>
		<circle cx="122" cy="49" r="3"></circle>
		<circle cx="137" cy="57" r="3"></circle>
		<circle cx="9" cy="38" r="3"></circle>
		<circle cx="114" cy="70" r="3"></circle>
		<circle cx="63" cy="38" r="3"></circle>
		<circle cx="108" cy="49" r="3"></circle>
		<circle cx="142" cy="60" r="3"></circle>
		<circle cx="139" cy="65" r="3"></circle>
		<circle cx="18" cy="49" r="3"></circle>
		<circle cx="25" cy="23" r="3"></circle>
		<circle cx="51" cy="35" r="3"></circle>
		<circle cx="108" cy="56" r="3"></circle>
		<circle cx="38" cy="16.5" r="3"></circle>
		<circle cx="107" cy="39" r="3"></circle>
		<circle cx="87" cy="44" r="3"></circle>
		<circle cx="42" cy="9" r="3"></circle>
		<circle cx="65" cy="27" r="3"></circle>
		<circle cx="81" cy="61" r="3"></circle>
		<circle cx="61" cy="28" r="3"></circle>
		<circle cx="69" cy="37" r="3"></circle>
		<circle cx="117" cy="60" r="3"></circle>
		<circle cx="11" cy="19" r="3"></circle>
		<circle cx="15" cy="38" r="3"></circle>
		<circle cx="53" cy="30" r="3"></circle>
		<circle cx="68" cy="53" r="3"></circle>
		<circle cx="122" cy="45" r="3"></circle>
		<circle cx="110" cy="43" r="3"></circle>
		<circle cx="74" cy="59" r="3"></circle>
		<circle cx="150" cy="72" r="3"></circle>
		<circle cx="34" cy="28" r="3"></circle>
		<circle cx="43" cy="39" r="3"></circle>
		<circle cx="81" cy="46" r="3"></circle>
		<circle cx="25" cy="39" r="3"></circle>
		<circle cx="43" cy="41" r="3"></circle>
		<circle cx="85" cy="55" r="3"></circle>
		<circle cx="41" cy="27" r="3"></circle>
		<circle cx="46" cy="30" r="3"></circle>
		<circle cx="104" cy="62" r="3"></circle>
		<circle cx="28" cy="31" r="3"></circle>
		<circle cx="21" cy="39" r="3"></circle>
		<circle cx="120" cy="47" r="3"></circle>
		<circle cx="88" cy="45" r="3"></circle>
		<circle cx="122" cy="58" r="3"></circle>
		<circle cx="39" cy="3" r="3"></circle>
		<circle cx="25" cy="33" r="3"></circle>
		<circle cx="138" cy="65" r="3"></circle>
		<circle cx="118" cy="52" r="3"></circle>
		<circle cx="35" cy="25" r="3"></circle>
		<circle cx="29" cy="28" r="3"></circle>
		<circle cx="23" cy="26" r="3"></circle>
		<circle cx="139" cy="56" r="3"></circle>
		<circle cx="45" cy="39" r="3"></circle>
		<circle cx="94" cy="68" r="3"></circle>
		<circle cx="136" cy="63" r="3"></circle>
		<circle cx="37" cy="27" r="3"></circle>
		<circle cx="89" cy="39" r="3"></circle>
		<circle cx="3" cy="16" r="3"></circle>
		<circle cx="99" cy="61" r="3"></circle>
		<circle cx="73" cy="54" r="3"></circle>
		<circle cx="67" cy="37" r="3"></circle>
		<circle cx="16" cy="20" r="3"></circle>
		<circle cx="23" cy="36" r="3"></circle>
		<circle cx="43" cy="33" r="3"></circle>
		<circle cx="61" cy="49" r="3"></circle>
		<circle cx="90" cy="36" r="3"></circle>
	</g>

	<g class="scatter2 stable" transform="translate(8, 28)">
		<circle cx="44" cy="24.3541667" r="3"></circle>
		<circle cx="65" cy="28.625" r="3"></circle>
		<circle cx="52" cy="27.7708333" r="3"></circle>
		<circle cx="72" cy="16.6666667" r="3"></circle>
		<circle cx="3" cy="18.375" r="3"></circle>
		<circle cx="136" cy="14.1041667" r="3"></circle>
		<circle cx="147" cy="14.9583333" r="3"></circle>
		<circle cx="136" cy="20.0833333" r="3"></circle>
		<circle cx="100" cy="25.2083333" r="3"></circle>
		<circle cx="144" cy="19.2291667" r="3"></circle>
		<circle cx="120" cy="24.3541667" r="3"></circle>
		<circle cx="93" cy="29.4791667" r="3"></circle>
		<circle cx="101" cy="32.0416667" r="3"></circle>
		<circle cx="132" cy="4.70833333" r="3"></circle>
		<circle cx="156" cy="19.2291667" r="3"></circle>
		<circle cx="63" cy="20.0833333" r="3"></circle>
		<circle cx="149" cy="31.1875" r="3"></circle>
		<circle cx="131" cy="17.5208333" r="3"></circle>
		<circle cx="14" cy="25.2083333" r="3"></circle>
		<circle cx="73" cy="18.375" r="3"></circle>
		<circle cx="18" cy="14.1041667" r="3"></circle>
		<circle cx="3" cy="22.6458333" r="3"></circle>
		<circle cx="117" cy="30.3333333" r="3"></circle>
		<circle cx="131" cy="19.2291667" r="3"></circle>
		<circle cx="78" cy="20.9375" r="3"></circle>
		<circle cx="45" cy="26.9166667" r="3"></circle>
		<circle cx="128" cy="30.3333333" r="3"></circle>
		<circle cx="52" cy="25.2083333" r="3"></circle>
		<circle cx="74" cy="12.3958333" r="3"></circle>
		<circle cx="76" cy="10.6875" r="3"></circle>
		<circle cx="181" cy="19.2291667" r="3"></circle>
		<circle cx="62" cy="29.4791667" r="3"></circle>
		<circle cx="75" cy="25.2083333" r="3"></circle>
		<circle cx="105" cy="16.6666667" r="3"></circle>
		<circle cx="150" cy="19.2291667" r="3"></circle>
		<circle cx="136" cy="26.9166667" r="3"></circle>
		<circle cx="113" cy="31.1875" r="3"></circle>
		<circle cx="94" cy="3" r="3"></circle>
		<circle cx="76" cy="11.5416667" r="3"></circle>
	</g>
	<g class="scatter2 increase" transform="translate(26, 8)">
		<circle cx="136" cy="24.3541667" r="3"></circle>
		<circle cx="100" cy="32.8958333" r="3"></circle>
		<circle cx="107" cy="17.5208333" r="3"></circle>
		<circle cx="92" cy="14.9583333" r="3"></circle>
		<circle cx="64" cy="47.4166667" r="3"></circle>
		<circle cx="96" cy="18.375" r="3"></circle>
		<circle cx="109" cy="3" r="3"></circle>
		<circle cx="117" cy="5.5625" r="3"></circle>
		<circle cx="55" cy="53.3958333" r="3"></circle>
		<circle cx="102" cy="18.375" r="3"></circle>
		<circle cx="107" cy="7.27083333" r="3"></circle>
		<circle cx="24" cy="57.6666667" r="3"></circle>
		<circle cx="61" cy="44" r="3"></circle>
		<circle cx="120" cy="27.7708333" r="3"></circle>
		<circle cx="63" cy="54.25" r="3"></circle>
		<circle cx="35" cy="55.9583333" r="3"></circle>
		<circle cx="119" cy="11.5416667" r="3"></circle>
		<circle cx="55" cy="71.3333333" r="3"></circle>
		<circle cx="78" cy="33.75" r="3"></circle>
		<circle cx="54" cy="49.9791667" r="3"></circle>
		<circle cx="27" cy="54.25" r="3"></circle>
		<circle cx="3" cy="61.0833333" r="3"></circle>
		<circle cx="131" cy="24.3541667" r="3"></circle>
		<circle cx="54" cy="44" r="3"></circle>
		<circle cx="108" cy="18.375" r="3"></circle>
		<circle cx="115" cy="37.1666667" r="3"></circle>
		<circle cx="68" cy="55.1041667" r="3"></circle>
		<circle cx="137" cy="12.3958333" r="3"></circle>
		<circle cx="109" cy="25.2083333" r="3"></circle>
		<circle cx="42" cy="53.3958333" r="3"></circle>
		<circle cx="64" cy="55.1041667" r="3"></circle>
		<circle cx="50" cy="61.0833333" r="3"></circle>
		<circle cx="103" cy="18.375" r="3"></circle>
		<circle cx="134" cy="17.5208333" r="3"></circle>
		<circle cx="29" cy="63.6458333" r="3"></circle>
		<circle cx="51" cy="48.2708333" r="3"></circle>
		<circle cx="117" cy="20.9375" r="3"></circle>
		<circle cx="113" cy="6.41666667" r="3"></circle>
		<circle cx="113" cy="25.2083333" r="3"></circle>
		<circle cx="38" cy="41.4375" r="3"></circle>
		<circle cx="119" cy="54.25" r="3"></circle>
		<circle cx="53" cy="49.9791667" r="3"></circle>
		<circle cx="28" cy="58.5208333" r="3"></circle>
		<circle cx="117" cy="21.7916667" r="3"></circle>
		<circle cx="64" cy="32.8958333" r="3"></circle>
		<circle cx="143" cy="3.85416667" r="3"></circle>
		<circle cx="71" cy="49.9791667" r="3"></circle>
		<circle cx="90" cy="59.375" r="3"></circle>
		<circle cx="71" cy="38.875" r="3"></circle>
		<circle cx="118" cy="11.5416667" r="3"></circle>
		<circle cx="114" cy="27.7708333" r="3"></circle>
		<circle cx="120" cy="35.4583333" r="3"></circle>
		<circle cx="78" cy="21.7916667" r="3"></circle>
		<circle cx="76" cy="32.0416667" r="3"></circle>
	</g>
	<g class="scatter2 decrease" transform="translate(29, 15)">
		<circle cx="90" cy="54.25" r="3"></circle>
		<circle cx="109" cy="54.25" r="3"></circle>
		<circle cx="89" cy="54.25" r="3"></circle>
		<circle cx="47" cy="42.2916667" r="3"></circle>
		<circle cx="137" cy="58.5208333" r="3"></circle>
		<circle cx="29" cy="28.625" r="3"></circle>
		<circle cx="3" cy="20.0833333" r="3"></circle>
		<circle cx="14" cy="23.5" r="3"></circle>
		<circle cx="51" cy="38.875" r="3"></circle>
		<circle cx="83" cy="18.375" r="3"></circle>
		<circle cx="48" cy="22.6458333" r="3"></circle>
		<circle cx="24" cy="26.9166667" r="3"></circle>
		<circle cx="32" cy="27.7708333" r="3"></circle>
		<circle cx="67" cy="46.5625" r="3"></circle>
		<circle cx="25" cy="20.9375" r="3"></circle>
		<circle cx="32" cy="28.625" r="3"></circle>
		<circle cx="98" cy="40.5833333" r="3"></circle>
		<circle cx="18" cy="10.6875" r="3"></circle>
		<circle cx="10" cy="25.2083333" r="3"></circle>
		<circle cx="95" cy="38.0208333" r="3"></circle>
		<circle cx="70" cy="43.1458333" r="3"></circle>
		<circle cx="107" cy="55.9583333" r="3"></circle>
		<circle cx="14" cy="3" r="3"></circle>
		<circle cx="10" cy="16.6666667" r="3"></circle>
		<circle cx="104" cy="54.25" r="3"></circle>
		<circle cx="104" cy="54.25" r="3"></circle>
		<circle cx="24" cy="20.0833333" r="3"></circle>
		<circle cx="28" cy="4.70833333" r="3"></circle>
		<circle cx="15" cy="20.0833333" r="3"></circle>
		<circle cx="124" cy="46.5625" r="3"></circle>
		<circle cx="39" cy="32.0416667" r="3"></circle>
	</g>

	<g class="line line1 stable" transform="translate(0, 31)" stroke-width="1.5" stroke-linecap="round" stroke-linejoin="round">
		<path d="M0,11.9534786 L2.63157895,9.94375863 L5.26315789,11.1356539 L7.89473684,14.4879556 L10.5263158,15.3961037 L13.1578947,13.091953 L15.7894737,12.2370973 L18.4210526,8.0624636 L21.0526316,13.7047197 L23.6842105,9.46916083 L26.3157895,9.77586186 L28.9473684,11.0239712 L31.5789474,12.0565759 L34.2105263,13.9292468 L36.8421053,8.73707625 L39.4736842,9.65807575 L42.1052632,11.4556981 L44.7368421,5.83513888 L47.3684211,14.1692772 L50,9.9387321 L52.6315789,8.21222473 L55.2631579,8.68220045 L57.8947368,6.5722975 L60.5263158,11.1736303 L63.1578947,14.1188251 L65.7894737,16.1005422 L68.4210526,13.1396811 L71.0526316,9.35855058 L73.6842105,9.35550307 L76.3157895,7.08505864 L78.9473684,12.6631872 L81.5789474,8.71059335 L84.2105263,7.28859185 L86.8421053,8.85498464 L89.4736842,8.58958356 L92.1052632,7.29917039 L94.7368421,7.76763989 L97.3684211,8.31751792 L100,7.08667201 L102.631579,5.77336731 L105.263158,9.84908998 L107.894737,10.0847765 L110.526316,7.64982373 L113.157895,12.6386007 L115.789474,5.45794927 L118.421053,5.87864756 L121.052632,10.2972627 L123.684211,4.69998989 L126.315789,10.9275357 L128.947368,4.35862737 L131.578947,6.65089328 L134.210526,7.22180137 L136.842105,1.26027379 L139.473684,5.47876619 L142.105263,5.93532866 L144.736842,5.36325243 L147.368421,5.83768245 L150,5.08466099 L152.631579,0.935452753 L155.263158,1.36564913 L157.894737,8.59375268 L160.526316,11.916419 L163.157895,3.69441262 L165.789474,5.64879433 L168.421053,9.45421668 L171.052632,5.09227823 L173.684211,10.0688368 L176.315789,2.56329669 L178.947368,7.14798785 L181.578947,5.49463168 L184.210526,3.98793427 L186.842105,5.58133451 L189.473684,1.15589584 L192.105263,3.59589264 L194.736842,0 L197.368421,2.02266167 L200,1.9590539" ></path>
	</g>
	<g class="line line1 increase" transform="translate(0, 28)" stroke-width="1.5" stroke-linecap="round" stroke-linejoin="round">
		<path d="M0,18.6498227 L2.63157895,18.3843656 L5.26315789,23.757022 L7.89473684,18.6475609 L10.5263158,27.3396728 L13.1578947,21.7171107 L15.7894737,23.0484191 L18.4210526,18.085494 L21.0526316,19.8805461 L23.6842105,20.4744103 L26.3157895,17.5191368 L28.9473684,16.0945088 L31.5789474,22.9666183 L34.2105263,16.1597925 L36.8421053,21.4134811 L39.4736842,18.958251 L42.1052632,19.2526344 L44.7368421,20.6565182 L47.3684211,22.0463691 L50,21.4027505 L52.6315789,21.2250211 L55.2631579,15.5324926 L57.8947368,16.7847978 L60.5263158,14.5403071 L63.1578947,15.8096792 L65.7894737,20.8074721 L68.4210526,15.2912471 L71.0526316,15.7161156 L73.6842105,18.550315 L76.3157895,18.5138551 L78.9473684,15.9524177 L81.5789474,9.81923559 L84.2105263,13.4529372 L86.8421053,15.8440079 L89.4736842,17.0481461 L92.1052632,11.4298394 L94.7368421,15.9588903 L97.3684211,10.2911123 L100,12.7449902 L102.631579,8.04886947 L105.263158,9.97819177 L107.894737,12.5765822 L110.526316,13.1086824 L113.157895,15.6305904 L115.789474,8.18772956 L118.421053,12.3922239 L121.052632,7.92282193 L123.684211,9.95343682 L126.315789,11.9297877 L128.947368,4.67641977 L131.578947,7.91185414 L134.210526,9.06528767 L136.842105,5.40740999 L139.473684,3.35408994 L142.105263,5.40138078 L144.736842,9.91787225 L147.368421,9.18286704 L150,9.92620152 L152.631579,8.06874187 L155.263158,1.43461454 L157.894737,2.48186129 L160.526316,10.063338 L163.157895,4.46622086 L165.789474,6.04819774 L168.421053,6.65475623 L171.052632,1.32405287 L173.684211,2.2933813 L176.315789,3.42313432 L178.947368,7.98818589 L181.578947,7.21359776 L184.210526,6.17467953 L186.842105,2.99845468 L189.473684,0.435912247 L192.105263,0 L194.736842,2.9603193 L197.368421,3.63416961 L200,2.11298444" ></path>
	</g>
	<g class="line line1 decrease" transform="translate(0, 33)" stroke-width="1.5" stroke-linecap="round" stroke-linejoin="round">
		<path d="M200,23.7923457 L197.368421,25.9517771 L194.736842,24.2450148 L192.105263,23.9910382 L189.473684,27.3718616 L186.842105,27.7319322 L184.210526,23.1172928 L181.578947,20.4460016 L178.947368,27.5860812 L176.315789,27.2095864 L173.684211,24.9544267 L171.052632,24.1573235 L168.421053,21.4179063 L165.789474,21.7018811 L163.157895,27.379478 L160.526316,26.9827086 L157.894737,21.9398487 L155.263158,21.897869 L152.631579,19.7852359 L150,21.7884973 L147.368421,19.028498 L144.736842,19.772646 L142.105263,24.2107566 L139.473684,21.0102152 L136.842105,17.6089129 L134.210526,21.1159739 L131.578947,19.4551004 L128.947368,15.7050421 L126.315789,17.0796854 L123.684211,20.572601 L121.052632,16.4152263 L118.421053,12.4347089 L115.789474,17.443297 L113.157895,21.9387139 L110.526316,18.5104719 L107.894737,13.5036685 L105.263158,19.7079538 L102.631579,13.8547769 L100,14.6593866 L97.3684211,17.0539377 L94.7368421,15.5770626 L92.1052632,15.202437 L89.4736842,15.213407 L86.8421053,13.5682814 L84.2105263,16.4803933 L81.5789474,14.7041849 L78.9473684,12.2367047 L76.3157895,14.5184054 L73.6842105,9.7571787 L71.0526316,11.5086309 L68.4210526,10.571143 L65.7894737,10.4257345 L63.1578947,13.6620221 L60.5263158,8.47557057 L57.8947368,10.7641579 L55.2631579,13.2465118 L52.6315789,14.3860898 L50,12.832407 L47.3684211,8.55278354 L44.7368421,10.1469929 L42.1052632,2.93721436 L39.4736842,8.7501784 L36.8421053,9.94670026 L34.2105263,4.19666503 L31.5789474,4.23838423 L28.9473684,7.6097856 L26.3157895,7.38834685 L23.6842105,5.58127236 L21.0526316,4.77990711 L18.4210526,7.96799665 L15.7894737,7.74315227 L13.1578947,1.2670296 L10.5263158,5.68434189e-14 L7.89473684,2.08903817 L5.26315789,6.81953856 L2.63157895,0.694472813 L0,1.09640914" ></path>
	</g>

	<g class="line line2 stable" transform="translate(0, 67)" stroke-width="1.5" stroke-linecap="round" stroke-linejoin="round">
		<path d="M0,2.30997102 L2.5974026,1.32774899 L5.19480519,3.87149048 L7.79220779,3.2806619 L10.3896104,0.78611914 L12.987013,0.778888986 L15.5844156,2.93276652 L18.1818182,2.50091925 L20.7792208,3.17756461 L23.3766234,1.4939442 L25.974026,0.767536698 L28.5714286,4.73142757 L31.1688312,-1.10709067 L33.7662338,2.9991705 L36.3636364,2.80705301 L38.961039,5.48388915 L41.5584416,5.40260076 L44.1558442,5.39295474 L46.7532468,5.75762751 L49.3506494,4.59404915 L51.9480519,-0.812815113 L54.5454545,1.34067978 L57.1428571,0.280426748 L59.7402597,-2.26232618 L62.3376623,1.81907937 L64.9350649,7.73073137 L67.5324675,3.42699531 L70.1298701,3.64573297 L72.7272727,1.64579318 L75.3246753,5.44982033 L77.9220779,1.94742247 L80.5194805,5.81761396 L83.1168831,1.33610727 L85.7142857,4.51563047 L88.3116883,6.44044277 L90.9090909,1.02915441 L93.5064935,5.76216072 L96.1038961,6.6015252 L98.7012987,4.67754564 L101.298701,-0.0633900288 L103.896104,1.2856082 L106.493506,0.675934209 L109.090909,1.77114372 L111.688312,4.34744302 L114.285714,-0.662339262 L116.883117,-0.783819108 L119.480519,4.78930254 L122.077922,0.840744268 L124.675325,2.66144552 L127.272727,-0.323448602 L129.87013,0.324624695 L132.467532,3.07287121 L135.064935,3.8299239 L137.662338,-1.24761096 L140.25974,5.19657753 L142.857143,4.99002318 L145.454545,3.53402905 L148.051948,1.46608282 L150.649351,3.9788149 L153.246753,1.45609403 L155.844156,0.271110513 L158.441558,4.8185686 L161.038961,4.5031511 L163.636364,0.75895619 L166.233766,2.06946723 L168.831169,3.90037006 L171.428571,2.85419423 L174.025974,0.860228193 L176.623377,1.74542608 L179.220779,0.868724785 L181.818182,2.858984 L184.415584,4.68317779 L187.012987,3.88393667 L189.61039,2.41048203 L192.207792,0.536905379 L194.805195,5.10408334 L197.402597,2.19674589" ></path>
	</g>
	<g class="line line2 increase" transform="translate(0, 30)" stroke-width="1.5" stroke-linecap="round" stroke-linejoin="round">
		<path d="M0,42.2683317 L2.63157895,40.7388764 L5.26315789,42.7353846 L7.89473684,41.5973226 L10.5263158,38.5555466 L13.1578947,38.0010831 L15.7894737,39.6077273 L18.4210526,38.6286467 L21.0526316,38.7580587 L23.6842105,36.527205 L26.3157895,35.2535642 L28.9473684,38.6702217 L31.5789474,32.2844701 L34.2105263,35.843498 L36.8421053,35.1041472 L39.4736842,37.23375 L42.1052632,36.6052283 L44.7368421,36.0483489 L47.3684211,35.8657884 L50,34.1549767 L52.6315789,28.2008791 L55.2631579,29.8071407 L57.8947368,28.1996543 L60.5263158,25.1096681 L63.1578947,28.6438403 L65.7894737,34.008259 L68.4210526,29.1572896 L71.0526316,28.8287939 L73.6842105,26.2816208 L76.3157895,29.5384146 L78.9473684,25.4887834 L81.5789474,28.8117416 L84.2105263,23.7830016 L86.8421053,26.4152914 L89.4736842,27.7928704 L92.1052632,21.8343487 L94.7368421,26.0201217 L97.3684211,26.3122529 L100,23.84104 L102.631579,18.552871 L105.263158,19.3546359 L107.894737,18.1977286 L110.526316,18.7457048 L113.157895,20.7747707 L115.789474,15.2177551 L118.421053,14.549042 L121.052632,19.5749303 L123.684211,15.0791387 L126.315789,16.3526066 L128.947368,12.8204792 L131.578947,12.9213191 L134.210526,15.1223323 L136.842105,15.3321517 L139.473684,9.7073835 L142.105263,15.6043387 L144.736842,14.850551 L147.368421,12.8473235 L150,10.232144 L152.631579,12.1976427 L155.263158,9.12768853 L157.894737,7.39547169 L160.526316,11.3956965 L163.157895,10.5330456 L165.789474,6.24161739 L168.421053,7.00489511 L171.052632,8.28856461 L173.684211,6.69515546 L176.315789,4.15395609 L178.947368,4.49192066 L181.578947,3.06798603 L184.210526,4.51101193 L186.842105,5.78797239 L189.473684,4.44149795 L192.105263,2.42080997 L194.736842,-2.84217094e-14 L197.368421,4.01994464 L200,0.565373857" ></path>
	</g>
	<g class="line line2 decrease" transform="translate(0, 25)" stroke-width="1.5" stroke-linecap="round" stroke-linejoin="round">
		<path d="M200,51.5189789 L197.368421,51.980646 L194.736842,53.7440262 L192.105263,53.9810083 L189.473684,49.4542048 L186.842105,46.9532042 L184.210526,47.4651165 L181.578947,45.9148942 L178.947368,43.6663663 L176.315789,47.930065 L173.684211,48.4861736 L171.052632,47.4512291 L168.421053,42.4282576 L165.789474,42.9225908 L163.157895,45.5218453 L160.526316,46.9651819 L157.894737,40.0066876 L155.263158,40.8274098 L152.631579,43.6322197 L150,42.9193956 L147.368421,38.0557819 L144.736842,36.7216558 L142.105263,39.7387713 L139.473684,32.9790933 L136.842105,39.7403002 L134.210526,34.9942761 L131.578947,38.6598615 L128.947368,35.8731042 L126.315789,32.6364362 L123.684211,37.4493437 L121.052632,31.4429228 L118.421053,33.3268216 L115.789474,30.6507278 L113.157895,31.5412874 L110.526316,34.5528893 L107.894737,30.4260011 L105.263158,30.4133569 L102.631579,31.5475163 L100,31.2923265 L97.3684211,28.8896363 L94.7368421,28.3660449 L92.1052632,25.6426344 L89.4736842,20.964376 L86.8421053,24.5856729 L84.2105263,21.7145506 L81.5789474,23.6015242 L78.9473684,25.7449304 L76.3157895,23.2655902 L73.6842105,21.4394242 L71.0526316,21.1617461 L68.4210526,20.0102082 L65.7894737,15.5730376 L63.1578947,22.2145001 L60.5263158,15.2573916 L57.8947368,15.5073013 L55.2631579,18.1012259 L52.6315789,13.9578333 L50,18.0796468 L47.3684211,12.0788115 L44.7368421,15.6635522 L42.1052632,9.40513466 L39.4736842,15.2308604 L36.8421053,10.0318275 L34.2105263,6.8895753 L31.5789474,7.82849283 L28.9473684,6.74445185 L26.3157895,10.8743026 L23.6842105,8.00901939 L21.0526316,3.9915878 L18.4210526,3.01549336 L15.7894737,8.63551277 L13.1578947,6.44145674 L10.5263158,6.60149722 L7.89473684,5.03591433 L5.26315789,0 L2.63157895,6.94054414 L0,4.47642185" ></path>
	</g>

	<g class="bar stable" transform="translate(4, 29)">
		<rect x="0" y="29" width="3" height="36"></rect>
		<rect x="9" y="3" width="3" height="62"></rect>
		<rect x="18" y="1" width="3" height="64"></rect>
		<rect x="27" y="13" width="3" height="52"></rect>
		<rect x="36" y="27" width="3" height="38"></rect>
		<rect x="45" y="25" width="3" height="40"></rect>
		<rect x="54" y="31" width="3" height="34"></rect>
		<rect x="63" y="4" width="3" height="61"></rect>
		<rect x="72" y="13" width="3" height="52"></rect>
		<rect x="81" y="0" width="3" height="65"></rect>
		<rect x="90" y="18" width="3" height="47"></rect>
		<rect x="99" y="6" width="3" height="59"></rect>
		<rect x="108" y="20" width="3" height="45"></rect>
		<rect x="117" y="20" width="3" height="45"></rect>
		<rect x="126" y="22" width="3" height="43"></rect>
		<rect x="135" y="30" width="3" height="35"></rect>
		<rect x="144" y="31" width="3" height="34"></rect>
		<rect x="153" y="6" width="3" height="59"></rect>
		<rect x="162" y="8" width="3" height="57"></rect>
		<rect x="171" y="15" width="3" height="50"></rect>
		<rect x="180" y="10" width="3" height="55"></rect>
		<rect x="189" y="21" width="3" height="44"></rect>
	</g>
	<g class="bar increase" transform="translate(4, 22)">
		<rect x="0" y="43" width="3" height="29"></rect>
		<rect x="9" y="35" width="3" height="37"></rect>
		<rect x="18" y="31" width="3" height="41"></rect>
		<rect x="27" y="31" width="3" height="41"></rect>
		<rect x="36" y="36" width="3" height="36"></rect>
		<rect x="45" y="32" width="3" height="40"></rect>
		<rect x="54" y="31" width="3" height="41"></rect>
		<rect x="63" y="20" width="3" height="52"></rect>
		<rect x="72" y="30" width="3" height="42"></rect>
		<rect x="81" y="27" width="3" height="45"></rect>
		<rect x="90" y="16" width="3" height="56"></rect>
		<rect x="99" y="25" width="3" height="47"></rect>
		<rect x="108" y="17" width="3" height="55"></rect>
		<rect x="117" y="20" width="3" height="52"></rect>
		<rect x="126" y="9" width="3" height="63"></rect>
		<rect x="135" y="20" width="3" height="52"></rect>
		<rect x="144" y="14" width="3" height="58"></rect>
		<rect x="153" y="18" width="3" height="54"></rect>
		<rect x="162" y="11" width="3" height="61"></rect>
		<rect x="171" y="3" width="3" height="69"></rect>
		<rect x="180" y="4" width="3" height="68"></rect>
		<rect x="189" y="0" width="3" height="72"></rect>
	</g>
	<g class="bar decrease" transform="translate(4, 28)">
		<rect x="180" y="29" width="3" height="37"></rect>
		<rect x="27" y="9" width="3" height="57"></rect>
		<rect x="18" y="1" width="3" height="65"></rect>
		<rect x="117" y="21" width="3" height="45"></rect>
		<rect x="126" y="26" width="3" height="40"></rect>
		<rect x="162" y="30" width="3" height="36"></rect>
		<rect x="189" y="39" width="3" height="27"></rect>
		<rect x="36" y="13" width="3" height="53"></rect>
		<rect x="90" y="17" width="3" height="49"></rect>
		<rect x="0" y="0" width="3" height="66"></rect>
		<rect x="99" y="18" width="3" height="48"></rect>
		<rect x="9" y="7" width="3" height="59"></rect>
		<rect x="153" y="33" width="3" height="33"></rect>
		<rect x="144" y="31" width="3" height="35"></rect>
		<rect x="81" y="7" width="3" height="59"></rect>
		<rect x="171" y="32" width="3" height="34"></rect>
		<rect x="108" y="17" width="3" height="49"></rect>
		<rect x="72" y="8" width="3" height="58"></rect>
		<rect x="63" y="1" width="3" height="65"></rect>
		<rect x="54" y="15" width="3" height="51"></rect>
		<rect x="45" y="12" width="3" height="54"></rect>
		<rect x="135" y="27" width="3" height="39"></rect>
	</g>

	<g class="facet bar" transform="translate(4, 13)">
		<rect x="0" y="15" width="3" height="18"></rect>
		<rect x="9" y="2" width="3" height="31"></rect>
		<rect x="18" y="1" width="3" height="32"></rect>
		<rect x="27" y="7" width="3" height="26"></rect>
		<rect x="36" y="14" width="3" height="19"></rect>
		<rect x="45" y="13" width="3" height="20"></rect>
		<rect x="54" y="16" width="3" height="17"></rect>
		<rect x="63" y="3" width="3" height="30"></rect>
		<rect x="72" y="7" width="3" height="26"></rect>
		<rect x="81" y="0" width="3" height="33"></rect>
		<rect x="90" y="10" width="3" height="23"></rect>
		<rect x="99" y="4" width="3" height="29"></rect>
		<rect x="108" y="11" width="3" height="22"></rect>
		<rect x="117" y="11" width="3" height="22"></rect>
		<rect x="126" y="12" width="3" height="21"></rect>
		<rect x="135" y="16" width="3" height="17"></rect>
		<rect x="144" y="16" width="3" height="17"></rect>
		<rect x="153" y="4" width="3" height="29"></rect>
		<rect x="162" y="5" width="3" height="28"></rect>
		<rect x="171" y="8" width="3" height="25"></rect>
		<rect x="180" y="6" width="3" height="27"></rect>
		<rect x="189" y="11" width="3" height="22"></rect>
		<g transform="translate(0, 48)">
			<rect x="0" y="15" width="3" height="18"></rect>
			<rect x="9" y="2" width="3" height="31"></rect>
			<rect x="18" y="1" width="3" height="32"></rect>
			<rect x="27" y="7" width="3" height="26"></rect>
			<rect x="36" y="14" width="3" height="19"></rect>
			<rect x="45" y="13" width="3" height="20"></rect>
			<rect x="54" y="16" width="3" height="17"></rect>
			<rect x="63" y="3" width="3" height="30"></rect>
			<rect x="72" y="7" width="3" height="26"></rect>
			<rect x="81" y="0" width="3" height="33"></rect>
			<rect x="90" y="10" width="3" height="23"></rect>
			<rect x="99" y="4" width="3" height="29"></rect>
			<rect x="108" y="11" width="3" height="22"></rect>
			<rect x="117" y="11" width="3" height="22"></rect>
			<rect x="126" y="12" width="3" height="21"></rect>
			<rect x="135" y="16" width="3" height="17"></rect>
			<rect x="144" y="16" width="3" height="17"></rect>
			<rect x="153" y="4" width="3" height="29"></rect>
			<rect x="162" y="5" width="3" height="28"></rect>
			<rect x="171" y="8" width="3" height="25"></rect>
			<rect x="180" y="6" width="3" height="27"></rect>
			<rect x="189" y="11" width="3" height="22"></rect>
		</g>
	</g>

	<g class="facet line">
		<g transform="translate(0, 21)" stroke-width="1.5" stroke-linecap="round" stroke-linejoin="round">
			<path d="M0,11.9534786 L2.63157895,9.94375863 L5.26315789,11.1356539 L7.89473684,14.4879556 L10.5263158,15.3961037 L13.1578947,13.091953 L15.7894737,12.2370973 L18.4210526,8.0624636 L21.0526316,13.7047197 L23.6842105,9.46916083 L26.3157895,9.77586186 L28.9473684,11.0239712 L31.5789474,12.0565759 L34.2105263,13.9292468 L36.8421053,8.73707625 L39.4736842,9.65807575 L42.1052632,11.4556981 L44.7368421,5.83513888 L47.3684211,14.1692772 L50,9.9387321 L52.6315789,8.21222473 L55.2631579,8.68220045 L57.8947368,6.5722975 L60.5263158,11.1736303 L63.1578947,14.1188251 L65.7894737,16.1005422 L68.4210526,13.1396811 L71.0526316,9.35855058 L73.6842105,9.35550307 L76.3157895,7.08505864 L78.9473684,12.6631872 L81.5789474,8.71059335 L84.2105263,7.28859185 L86.8421053,8.85498464 L89.4736842,8.58958356 L92.1052632,7.29917039 L94.7368421,7.76763989 L97.3684211,8.31751792 L100,7.08667201 L102.631579,5.77336731 L105.263158,9.84908998 L107.894737,10.0847765 L110.526316,7.64982373 L113.157895,12.6386007 L115.789474,5.45794927 L118.421053,5.87864756 L121.052632,10.2972627 L123.684211,4.69998989 L126.315789,10.9275357 L128.947368,4.35862737 L131.578947,6.65089328 L134.210526,7.22180137 L136.842105,1.26027379 L139.473684,5.47876619 L142.105263,5.93532866 L144.736842,5.36325243 L147.368421,5.83768245 L150,5.08466099 L152.631579,0.935452753 L155.263158,1.36564913 L157.894737,8.59375268 L160.526316,11.916419 L163.157895,3.69441262 L165.789474,5.64879433 L168.421053,9.45421668 L171.052632,5.09227823 L173.684211,10.0688368 L176.315789,2.56329669 L178.947368,7.14798785 L181.578947,5.49463168 L184.210526,3.98793427 L186.842105,5.58133451 L189.473684,1.15589584 L192.105263,3.59589264 L194.736842,0 L197.368421,2.02266167 L200,1.9590539" ></path>
		</g>
		<g transform="translate(0, 51)" stroke-width="1.5" stroke-linecap="round" stroke-linejoin="round">
			<path d="M0,18.6498227 L2.63157895,18.3843656 L5.26315789,23.757022 L7.89473684,18.6475609 L10.5263158,27.3396728 L13.1578947,21.7171107 L15.7894737,23.0484191 L18.4210526,18.085494 L21.0526316,19.8805461 L23.6842105,20.4744103 L26.3157895,17.5191368 L28.9473684,16.0945088 L31.5789474,22.9666183 L34.2105263,16.1597925 L36.8421053,21.4134811 L39.4736842,18.958251 L42.1052632,19.2526344 L44.7368421,20.6565182 L47.3684211,22.0463691 L50,21.4027505 L52.6315789,21.2250211 L55.2631579,15.5324926 L57.8947368,16.7847978 L60.5263158,14.5403071 L63.1578947,15.8096792 L65.7894737,20.8074721 L68.4210526,15.2912471 L71.0526316,15.7161156 L73.6842105,18.550315 L76.3157895,18.5138551 L78.9473684,15.9524177 L81.5789474,9.81923559 L84.2105263,13.4529372 L86.8421053,15.8440079 L89.4736842,17.0481461 L92.1052632,11.4298394 L94.7368421,15.9588903 L97.3684211,10.2911123 L100,12.7449902 L102.631579,8.04886947 L105.263158,9.97819177 L107.894737,12.5765822 L110.526316,13.1086824 L113.157895,15.6305904 L115.789474,8.18772956 L118.421053,12.3922239 L121.052632,7.92282193 L123.684211,9.95343682 L126.315789,11.9297877 L128.947368,4.67641977 L131.578947,7.91185414 L134.210526,9.06528767 L136.842105,5.40740999 L139.473684,3.35408994 L142.105263,5.40138078 L144.736842,9.91787225 L147.368421,9.18286704 L150,9.92620152 L152.631579,8.06874187 L155.263158,1.43461454 L157.894737,2.48186129 L160.526316,10.063338 L163.157895,4.46622086 L165.789474,6.04819774 L168.421053,6.65475623 L171.052632,1.32405287 L173.684211,2.2933813 L176.315789,3.42313432 L178.947368,7.98818589 L181.578947,7.21359776 L184.210526,6.17467953 L186.842105,2.99845468 L189.473684,0.435912247 L192.105263,0 L194.736842,2.9603193 L197.368421,3.63416961 L200,2.11298444" ></path>
		</g>
	</g>

	<g class="horizontalBar" transform="translate(5, 5)">
		<path d="M88,0 L88,3 L0,3 L0,0 L88,0 L88,0 Z"></path>
		<path d="M151,9 L151,12 L0,12 L0,9 L151,9 L151,9 Z"></path>
		<path d="M156,18 L156,21 L0,21 L0,18 L156,18 L156,18 Z"></path>
		<path d="M127,27 L127,30 L0,30 L0,27 L127,27 L127,27 Z"></path>
		<path d="M93,36 L93,39 L0,39 L0,36 L93,36 L93,36 Z"></path>
		<path d="M97,45 L97,48 L0,48 L0,45 L97,45 L97,45 Z"></path>
		<path d="M83,54 L83,57 L0,57 L0,54 L83,54 L83,54 Z"></path>
		<path d="M148,63 L148,66 L0,66 L0,63 L148,63 L148,63 Z"></path>
		<path d="M127,72 L127,75 L0,75 L0,72 L127,72 L127,72 Z"></path>
		<path d="M158,81 L158,84 L0,84 L0,81 L158,81 L158,81 Z"></path>
	</g>
</svg>